<svg width="16" height="16" viewBox="0 0 16 16" fill="none" xmlns="http://www.w3.org/2000/svg">
<g opacity="0.3">
<path d="M13.2788 5.75L13.9833 5.04375C14.1299 4.89687 14.1299 4.65937 13.9833 4.5125L13.4534 3.98125C13.3069 3.83438 13.07 3.83438 12.9235 3.98125L12.2782 4.62813C11.3087 3.76875 10.0836 3.19375 8.73076 3.04063V1.5H9.60359C9.80933 1.5 9.97766 1.33125 9.97766 1.125V0.375C9.97766 0.16875 9.80933 0 9.60359 0H6.36164C6.1559 0 5.98757 0.16875 5.98757 0.375V1.125C5.98757 1.33125 6.1559 1.5 6.36164 1.5H7.23447V3.04375C4.00499 3.41563 1.49872 6.1625 1.49872 9.5C1.49872 13.0906 4.40089 16 7.98262 16C11.5643 16 14.4665 13.0906 14.4665 9.5C14.4665 8.10312 14.027 6.80937 13.2788 5.75ZM7.98262 14.5C5.22696 14.5 2.995 12.2625 2.995 9.5C2.995 6.7375 5.22696 4.5 7.98262 4.5C10.7383 4.5 12.9702 6.7375 12.9702 9.5C12.9702 12.2625 10.7383 14.5 7.98262 14.5ZM8.35669 11H7.60855C7.40281 11 7.23447 10.8313 7.23447 10.625V6.375C7.23447 6.16875 7.40281 6 7.60855 6H8.35669C8.56243 6 8.73076 6.16875 8.73076 6.375V10.625C8.73076 10.8313 8.56243 11 8.35669 11Z" fill="black"/>
</g>
</svg>
